<?xml version="1.0" encoding="UTF-8"?>
<svg width="180" height="48" viewBox="0 0 180 48" fill="none" xmlns="http://www.w3.org/2000/svg">
  <!-- Gradient Definitions -->
  <defs>
    <linearGradient id="logoGradient" x1="0%" y1="0%" x2="100%" y2="100%">
      <stop offset="0%" style="stop-color:#6366f1"/>
      <stop offset="100%" style="stop-color:#8b5cf6"/>
    </linearGradient>
    <linearGradient id="glowGradient" x1="0%" y1="0%" x2="100%" y2="100%">
      <stop offset="0%" style="stop-color:#6366f1;stop-opacity:0.2"/>
      <stop offset="100%" style="stop-color:#8b5cf6;stop-opacity:0"/>
    </linearGradient>
  </defs>
  
  <!-- Glow Effect -->
  <circle cx="24" cy="24" r="20" fill="url(#glowGradient)" filter="blur(8px)"/>
  
  <!-- Main Logo Shape -->
  <path d="M24 4C12.954 4 4 12.954 4 24s8.954 20 20 20 20-8.954 20-20S35.046 4 24 4zm0 36c-8.837 0-16-7.163-16-16S15.163 8 24 8s16 7.163 16 16-7.163 16-16 16z" fill="url(#logoGradient)"/>
  
  <!-- Inner Circuit Lines -->
  <path d="M24 12c-6.627 0-12 5.373-12 12s5.373 12 12 12 12-5.373 12-12-5.373-12-12-12zm0 20c-4.418 0-8-3.582-8-8s3.582-8 8-8 8 3.582 8 8-3.582 8-8 8z" fill="url(#logoGradient)" opacity="0.8"/>
  
  <!-- Pulse Rings -->
  <circle cx="24" cy="24" r="4" fill="url(#logoGradient)"/>
  
  <!-- Text -->
  <text x="56" y="32" fill="url(#logoGradient)" font-family="Arial, sans-serif" font-size="24" font-weight="bold">REPOLLO</text>
</svg> 